<?xml version="1.0" standalone="no"?>
<!DOCTYPE svg PUBLIC "-//W3C//DTD SVG 20010904//EN"
 "http://www.w3.org/TR/2001/REC-SVG-20010904/DTD/svg10.dtd">
<svg version="1.0" xmlns="http://www.w3.org/2000/svg"
 width="225.000000pt" height="225.000000pt" viewBox="0 0 225.000000 225.000000"
 preserveAspectRatio="xMidYMid meet">
<metadata>
Created by potrace 1.14, written by Peter Selinger 2001-2017
</metadata>
<g transform="translate(0.000000,225.000000) scale(0.100000,-0.100000)"
fill="#000000" stroke="none">
<path d="M428 2234 c-176 -42 -325 -175 -395 -350 l-28 -69 -3 -663 c-3 -730
-4 -723 59 -848 41 -82 105 -153 189 -209 122 -81 151 -87 424 -93 l238 -4
-40 58 c-120 177 -175 397 -152 601 11 99 48 229 86 304 l23 47 -37 -9 c-104
-24 -257 -2 -367 54 -81 40 -202 162 -243 245 -89 180 -78 396 27 561 44 68
144 159 216 197 155 81 356 84 508 8 84 -43 107 -62 107 -92 0 -78 84 -204
133 -199 13 1 21 -3 20 -10 -2 -7 4 -13 13 -13 9 0 12 5 8 13 -4 7 -3 8 2 4 5
-5 9 -14 9 -20 0 -7 7 -39 14 -71 13 -60 11 -227 -4 -273 -7 -21 -7 -21 56 4
202 82 448 81 655 -1 68 -27 84 -30 79 -17 -39 99 -24 351 21 351 8 0 11 7 8
18 -5 16 -5 16 6 0 9 -15 25 -18 98 -17 59 1 79 4 62 9 -24 8 -24 8 -2 9 27 1
27 12 4 88 -44 140 -153 273 -274 334 -118 60 -148 63 -533 64 l-350 0 -6 -80
-5 -80 -2 83 -2 82 -282 -1 c-205 0 -299 -5 -340 -15z m967 -77 c13 4 16 3 11
-5 -10 -17 -31 -15 -47 6 -12 15 -12 16 2 4 9 -7 25 -9 34 -5z m171 -1 c18 5
18 5 1 -6 -20 -13 -47 -7 -47 11 0 9 3 9 14 0 7 -6 22 -9 32 -5z m-306 0 c0
-2 -9 -6 -20 -9 -11 -3 -18 -1 -14 4 5 9 34 13 34 5z m140 -30 c14 -2 28 -4
33 -5 4 0 7 -6 7 -12 0 -8 -5 -7 -15 1 -9 7 -18 11 -21 8 -2 -3 11 -13 30 -22
33 -16 89 -71 98 -98 3 -7 9 -10 13 -6 5 5 1 16 -8 26 -10 10 -17 26 -17 36 0
11 -5 15 -12 10 -7 -4 -2 5 12 20 20 22 31 26 65 24 29 -2 41 -8 43 -21 5 -26
-26 -57 -57 -57 -23 -1 -24 -2 -8 -11 9 -5 23 -7 30 -4 6 4 4 0 -6 -8 -18 -15
-20 -58 -3 -74 5 -4 5 6 2 23 -8 35 9 55 48 58 14 0 22 6 19 14 -3 6 0 12 6
12 6 0 11 -7 11 -15 0 -8 7 -15 15 -15 8 0 15 -4 15 -10 0 -5 -12 -10 -27 -10
l-28 -1 25 -14 c26 -15 54 -21 34 -7 -8 5 -6 13 6 25 17 17 19 17 39 -9 12
-16 21 -21 21 -12 0 8 -5 19 -10 24 -7 7 -6 16 4 29 13 18 14 18 20 -3 4 -12
12 -22 17 -22 6 0 8 3 6 8 -7 11 86 2 101 -10 8 -7 12 -7 12 1 0 15 27 14 33
-1 4 -10 7 -10 18 0 20 19 28 15 37 -20 9 -37 -13 -72 -54 -82 -25 -7 -38 -37
-38 -92 0 -32 0 -32 -17 -10 -20 25 -27 56 -17 72 12 19 17 84 7 84 -6 0 -8
-9 -4 -19 4 -15 -1 -24 -23 -35 -33 -17 -52 -7 -53 29 0 19 -1 19 -9 -2 -5
-13 -13 -23 -17 -23 -12 1 -49 30 -45 36 2 2 1 10 -1 17 -3 6 -6 3 -6 -8 -1
-12 4 -26 9 -31 12 -12 3 -44 -11 -44 -4 0 -6 7 -3 15 4 10 0 13 -14 10 -16
-3 -19 1 -15 18 3 16 2 18 -5 8 -12 -16 -92 -33 -89 -18 1 5 -4 12 -11 14 -9
4 -10 -2 -2 -23 6 -15 8 -29 5 -32 -3 -3 -5 1 -5 9 0 12 -2 11 -11 -1 -9 -12
-10 -11 -6 7 3 16 1 20 -9 16 -9 -3 -12 -13 -9 -27 5 -19 5 -19 -5 -3 -6 9 -8
22 -5 27 3 6 2 10 -3 10 -5 0 -7 12 -4 28 2 15 3 25 1 22 -2 -3 -13 -16 -24
-29 -11 -14 -15 -22 -9 -18 6 3 11 0 11 -8 0 -10 -5 -11 -15 -6 -21 12 -54 1
-48 -15 3 -7 1 -16 -4 -19 -6 -4 -10 1 -10 9 0 19 -31 21 -49 4 -11 -10 -13
-10 -7 0 4 6 2 12 -3 12 -6 0 -11 -4 -11 -9 0 -5 -9 -7 -20 -4 -11 3 -20 9
-20 14 0 5 -18 25 -40 45 -22 20 -37 40 -34 45 3 5 -1 9 -8 10 -7 0 8 7 34 16
45 15 57 31 58 72 0 11 -4 9 -15 -5 -14 -18 -14 -18 -9 3 4 13 13 21 24 20 10
-1 16 -5 14 -9 -3 -4 -1 -8 5 -8 6 0 8 -7 5 -15 -4 -8 1 -17 10 -21 9 -3 13
-10 10 -15 -3 -5 6 -9 19 -9 14 0 34 -8 46 -17 20 -17 21 -19 6 -40 -9 -13
-24 -23 -33 -23 -10 0 -13 3 -7 8 15 11 18 35 3 28 -7 -3 -21 -9 -31 -12 -10
-4 -17 -14 -15 -23 4 -18 32 -26 56 -15 9 4 22 6 29 5 7 -1 20 10 29 24 14 21
15 30 5 48 -7 13 -9 15 -6 4 3 -11 1 -16 -6 -11 -6 3 -8 15 -6 26 5 16 3 17
-9 7 -8 -7 -14 -8 -13 -3 4 23 -3 35 -31 49 -16 9 -30 13 -30 10 0 -4 -7 1
-16 9 -8 9 -23 17 -32 18 -59 5 -102 4 -102 -4 0 -19 -33 -2 -36 18 -3 21 0
21 84 18 48 -2 98 -6 112 -8z m274 -31 c-4 -8 -11 -12 -16 -9 -6 4 -5 10 3 15
19 12 19 11 13 -6z m-564 -15 c0 -5 -2 -10 -4 -10 -3 0 -8 5 -11 10 -3 6 -1
10 4 10 6 0 11 -4 11 -10z m637 4 c-3 -3 -12 -4 -19 -1 -8 3 -5 6 6 6 11 1 17
-2 13 -5z m57 -18 c-6 -15 -24 -23 -24 -11 0 8 24 34 28 30 1 -1 0 -10 -4 -19z
m116 14 c0 -5 -4 -10 -10 -10 -5 0 -10 5 -10 10 0 6 5 10 10 10 6 0 10 -4 10
-10z m-863 -22 c-3 -8 -6 -5 -6 6 -1 11 2 17 5 13 3 -3 4 -12 1 -19z m598 12
c3 -5 1 -10 -4 -10 -6 0 -11 5 -11 10 0 6 2 10 4 10 3 0 8 -4 11 -10z m-255
-14 c0 -3 -4 -8 -10 -11 -5 -3 -10 -1 -10 4 0 6 5 11 10 11 6 0 10 -2 10 -4z
m445 -5 c3 -5 1 -12 -5 -16 -5 -3 -10 1 -10 9 0 18 6 21 15 7z m-407 -19 c2
-7 -5 -12 -15 -11 -12 0 -14 2 -4 6 11 5 11 7 0 15 -12 8 -12 9 0 6 8 -3 17
-10 19 -16z m196 3 c-4 -8 -11 -15 -16 -15 -6 0 -5 6 2 15 7 8 14 15 16 15 2
0 1 -7 -2 -15z m-334 -5 c0 -5 -5 -10 -11 -10 -5 0 -7 5 -4 10 3 6 8 10 11 10
2 0 4 -4 4 -10z m-50 -24 c0 -2 -7 -7 -16 -10 -8 -3 -12 -2 -9 4 6 10 25 14
25 6z m830 -10 c0 -3 -4 -8 -10 -11 -5 -3 -10 -1 -10 4 0 6 5 11 10 11 6 0 10
-2 10 -4z m-851 -38 c4 7 12 3 20 -11 9 -15 10 -18 1 -10 -7 6 -19 9 -26 6
-10 -3 -14 2 -13 18 1 20 2 20 6 5 3 -12 8 -15 12 -8z m818 0 c-3 -8 -6 -5 -6
6 -1 11 2 17 5 13 3 -3 4 -12 1 -19z m-567 -8 c0 -5 -5 -10 -11 -10 -5 0 -7 5
-4 10 3 6 8 10 11 10 2 0 4 -4 4 -10z m-404 -9 c-4 -5 -2 -11 4 -13 6 -2 6 -8
0 -18 -8 -13 -10 -12 -10 3 0 9 -6 17 -12 17 -9 0 -8 4 2 10 19 12 23 12 16 1z
m34 -36 c-7 -9 -15 -13 -17 -11 -6 6 20 36 26 30 2 -2 -2 -10 -9 -19z m709
-32 c10 -19 9 -22 -4 -17 -8 3 -12 10 -9 15 3 5 0 9 -6 9 -6 0 -8 5 -5 11 8
12 8 12 24 -18z m179 5 c-2 -18 -9 -23 -32 -25 -26 -1 -27 0 -11 7 l20 9 -20
0 c-17 1 -17 3 -5 11 10 6 16 6 18 0 6 -16 22 -12 22 5 0 8 2 15 5 15 3 0 4
-10 3 -22z m-682 3 c-3 -5 1 -12 10 -15 9 -4 14 -9 11 -13 -9 -8 -38 17 -31
28 3 5 7 9 10 9 3 0 3 -4 0 -9z m464 5 c0 -2 -7 -6 -15 -10 -8 -3 -15 -1 -15
4 0 6 7 10 15 10 8 0 15 -2 15 -4z m-486 -22 c3 -8 2 -12 -4 -9 -6 3 -10 10
-10 16 0 14 7 11 14 -7z m386 2 c-7 -7 -14 -6 -21 1 -9 9 -7 12 9 10 14 -1 18
-5 12 -11z m-146 -17 c-8 -14 -24 -10 -24 6 0 9 6 12 15 9 8 -4 12 -10 9 -15z
m103 15 c-3 -3 -12 -4 -19 -1 -8 3 -5 6 6 6 11 1 17 -2 13 -5z m-517 -37 c0
-5 -4 -5 -10 -2 -5 3 -10 14 -10 23 0 15 2 15 10 2 5 -8 10 -19 10 -23z m35
-16 c-3 -6 -11 -11 -17 -11 -6 0 -6 6 2 15 14 17 26 13 15 -4z m27 -11 c-12
-11 -25 -20 -29 -20 -4 0 4 11 17 24 14 13 27 22 29 20 3 -2 -5 -13 -17 -24z
m308 5 c0 -8 -2 -15 -4 -15 -2 0 -6 7 -10 15 -3 8 -1 15 4 15 6 0 10 -7 10
-15z m80 6 c0 -6 -4 -13 -10 -16 -5 -3 -10 1 -10 9 0 9 5 16 10 16 6 0 10 -4
10 -9z m415 -61 c-7 -11 -703 -14 -730 -3 -8 3 -13 8 -11 12 2 3 171 5 375 3
245 -2 370 -6 366 -12z m141 2 c-21 -2 -42 0 -47 5 -4 4 13 6 39 3 l47 -5 -39
-3z"/>
<path d="M1800 1975 c0 -9 6 -12 15 -9 8 4 12 10 9 15 -8 14 -24 10 -24 -6z"/>
<path d="M1281 1971 c-9 -6 -5 -13 13 -24 33 -22 36 -21 36 6 0 24 -25 33 -49
18z"/>
<path d="M1375 1970 c4 -6 11 -8 16 -5 14 9 11 15 -7 15 -8 0 -12 -5 -9 -10z"/>
<path d="M1860 1976 c0 -2 9 -6 20 -9 11 -3 18 -1 14 4 -5 9 -34 13 -34 5z"/>
<path d="M1848 1933 c7 -3 16 -2 19 1 4 3 -2 6 -13 5 -11 0 -14 -3 -6 -6z"/>
<path d="M1581 1220 c-1 -15 -7 -32 -13 -38 -9 -9 -10 -17 -2 -30 18 -29 -13
-211 -55 -321 -19 -51 -19 -51 0 -62 18 -9 20 -21 18 -130 0 -65 -3 -119 -6
-119 -10 0 -43 91 -51 141 l-9 54 -7 -40 c-6 -36 -30 -108 -51 -157 -5 -13 -3
-18 9 -18 13 0 16 -13 16 -73 0 -68 -2 -75 -30 -102 l-30 -28 -14 34 c-8 19
-18 47 -21 62 -9 33 -20 28 -29 -13 -3 -17 -22 -56 -42 -87 -29 -42 -34 -57
-24 -63 10 -6 11 -31 4 -119 l-9 -111 127 0 127 0 12 43 c12 46 49 101 79 117
15 8 27 7 48 -4 36 -19 58 -52 74 -111 l13 -47 50 7 c54 7 163 41 182 57 9 7
11 31 6 85 -5 56 -3 77 7 83 10 6 7 15 -11 41 -31 44 -44 69 -60 116 l-12 38
-16 -46 c-16 -44 -67 -139 -76 -139 -3 0 -5 32 -5 70 0 56 3 70 15 70 21 0 19
14 -6 36 -12 10 -35 46 -50 79 -25 52 -33 60 -56 60 -28 0 -28 0 -31 80 l-3
80 31 12 c27 10 30 15 30 57 0 24 4 48 10 51 6 4 4 15 -6 30 -9 14 -22 44 -29
67 l-13 43 -7 -42 c-4 -24 -11 -43 -15 -43 -14 0 -43 142 -45 220 -1 41 -4 82
-7 90 -4 8 -9 22 -11 30 -3 8 -6 4 -6 -10z"/>
</g>
</svg>
