<?xml version="1.0" encoding="UTF-8"?>
<svg width="51px" height="37px" viewBox="0 0 51 37" version="1.1" xmlns="http://www.w3.org/2000/svg" xmlns:xlink="http://www.w3.org/1999/xlink">
    <title>#e400_disneyland-paris</title>
    <g id="Page-1" stroke="none" stroke-width="1" fill="none" fill-rule="evenodd">
        <g id="Artboard" transform="translate(-210.000000, -118.000000)">
            <g id="ICON" transform="translate(205.000000, 106.762619)">
                <g id="#e400_disneyland-paris" transform="translate(5.000000, 12.000000)">
                    <path d="M34.4057143,27.5452857 C34.3342857,27.5095714 34.2828571,27.4695714 34.2557143,27.431 C34.2828571,27.4724286 34.3585714,27.5095714 34.4342857,27.5452857 L34.4057143,27.5452857 Z M20.2171429,25.2038571 L19.1942857,23.051 L21.28,18.6552857 L21.7857143,22.411 C21.2942857,23.6495714 20.6657143,24.6124286 20.2171429,25.2038571 L20.2171429,25.2038571 Z M16.2857143,16.921 C16.9285714,17.0824286 17.65,17.1681429 18.4,17.1681429 C19.2,17.1681429 19.9642857,17.071 20.6271429,16.8895714 L18.4514286,21.4795714 L16.2857143,16.921 Z M13.9657143,30.9267143 L15.6214286,18.6552857 L17.7057143,23.051 L13.9657143,30.9267143 Z M13.9142857,6.061 C14.0385714,6.04957143 14.1628571,6.04385714 14.2857143,6.04385714 C14.3414286,6.04385714 14.3957143,6.05528571 14.4528571,6.05814286 C14.2742857,6.04957143 14.0971429,6.04385714 13.9142857,6.061 L13.9142857,6.061 Z M14.0371429,11.8781429 C13.97,11.8781429 13.9071429,11.8638571 13.8414286,11.861 C14.0157143,11.8695714 14.1885714,11.8781429 14.3671429,11.8638571 C14.2557143,11.8724286 14.1457143,11.8781429 14.0371429,11.8781429 L14.0371429,11.8781429 Z M22.6157143,5.941 C22.7385714,5.941 22.8628571,5.94671429 22.9871429,5.95814286 C22.8042857,5.941 22.6257143,5.94671429 22.4485714,5.95528571 C22.5057143,5.95242857 22.5585714,5.941 22.6157143,5.941 L22.6157143,5.941 Z M23.0285714,11.7581429 C22.9714286,11.761 22.9185714,11.7724286 22.8614286,11.7724286 C22.7385714,11.7724286 22.6142857,11.7667143 22.4914286,11.7552857 C22.6728571,11.7724286 22.8514286,11.7667143 23.0285714,11.7581429 L23.0285714,11.7581429 Z M38.5685714,27.8352857 C39.1471429,27.6881429 39.2557143,27.5338571 39.2928571,27.481 C39.3557143,27.3895714 39.3414286,27.2695714 39.2614286,27.1938571 C39.2414286,27.1738571 37.2957143,25.3438571 36.8385714,22.601 C36.8214286,22.4952857 36.73,22.4195714 36.6242857,22.4167143 C36.5185714,22.4167143 36.4257143,22.4924286 36.4071429,22.5981429 C35.9257143,25.3524286 34.1171429,27.261 34.0985714,27.2795714 C34.0842857,27.2938571 34.0742857,27.311 34.0657143,27.3252857 L33.9528571,27.3252857 L33.9528571,23.7081429 C34.0157143,23.6981429 34.0857143,23.6838571 34.1571429,23.6695714 C34.6,23.5881429 34.7571429,23.5581429 34.84,23.4438571 C34.9085714,23.351 34.8942857,23.2238571 34.8042857,23.1481429 C34.7857143,23.131 32.8457143,21.4567143 32.3885714,18.9538571 C32.37,18.851 32.28,18.7752857 32.1742857,18.7752857 L30.5614286,18.7752857 L30.5614286,14.211 C30.7,14.2667143 30.8485714,14.2981429 30.9985714,14.2981429 C31.6542857,14.2981429 32.1871429,13.7652857 32.1871429,13.1095714 C32.1871429,13.0867143 32.1842857,13.061 32.1814286,13.0395714 L32.1871429,13.011 L32.1871429,11.5295714 C32.3742857,11.421 32.5814286,11.2367143 32.5842857,11.2338571 C32.67,11.1524286 32.6742857,11.0167143 32.5942857,10.9295714 C32.5814286,10.9152857 31.3514286,9.551 31.3514286,7.61814286 C31.3514286,7.49814286 31.2542857,7.39671429 31.1328571,7.39671429 C31.0128571,7.39671429 30.9157143,7.49814286 30.9157143,7.61814286 C30.9157143,8.52957143 30.6928571,9.31385714 30.4471429,9.90242857 C29.9314286,8.28814286 29.3385714,5.91528571 29.0971429,3.02814286 C29.3971429,2.89671429 29.5985714,2.60385714 29.5985714,2.26671429 C29.5985714,1.89242857 29.35,1.571 29.0042857,1.471 C28.9928571,1.10528571 28.9842857,0.736714286 28.9842857,0.361 C28.9842857,0.238142857 28.8871429,0.142428571 28.7671429,0.142428571 C28.6457143,0.142428571 28.5471429,0.238142857 28.5471429,0.361 C28.5471429,0.736714286 28.5414286,1.10528571 28.53,1.471 C28.1842857,1.571 27.9357143,1.88957143 27.9357143,2.26671429 C27.9357143,2.60671429 28.1385714,2.89957143 28.44,3.031 C27.9885714,8.73385714 26.2214286,12.5595714 26.2042857,12.5981429 C26.1714286,12.6681429 26.1771429,12.7524286 26.22,12.8124286 C26.2885714,12.9195714 26.4542857,13.0667143 27.0614286,13.1895714 L27.0614286,19.7781429 L27.0142857,19.7781429 C26.7385714,19.331 25.6142857,17.3381429 25.6142857,14.641 C25.6142857,14.521 25.5157143,14.4195714 25.3957143,14.4195714 C25.2742857,14.4195714 25.1771429,14.521 25.1771429,14.641 C25.1771429,17.7095714 23.7285714,19.8524286 23.7142857,19.8752857 C23.6557143,19.961 23.6657143,20.0752857 23.7357143,20.151 C23.7814286,20.1938571 23.8728571,20.291 24.4385714,20.3524286 L24.4385714,24.3567143 C23.8728571,23.5438571 23.29,22.431 22.9542857,21.111 L22.3271429,16.4481429 L22.5171429,16.0467143 C22.5842857,15.9095714 22.6028571,15.7452857 22.5728571,15.5952857 C22.5885714,15.5724286 22.5971429,15.5481429 22.5971429,15.5224286 L22.5971429,11.9252857 C22.6857143,11.931 22.7728571,11.9338571 22.8614286,11.9338571 C24.6928571,11.9338571 26.1757143,10.7538571 26.31,9.18242857 C26.4542857,7.49528571 24.97,5.97385714 23.0028571,5.79242857 C22.8714286,5.78242857 22.7428571,5.77671429 22.6157143,5.77671429 C20.7842857,5.77671429 19.3028571,6.95671429 19.1685714,8.52671429 C19.1114286,9.19957143 19.3085714,9.86385714 19.7328571,10.4381429 C19.2985714,10.4024286 18.85,10.3824286 18.4,10.3824286 C18.01,10.3824286 17.6257143,10.3967143 17.2514286,10.4252857 C17.6171429,9.87814286 17.7857143,9.25242857 17.7314286,8.63671429 C17.5971429,7.06528571 16.1157143,5.88242857 14.2857143,5.88242857 C14.1571429,5.88242857 14.0285714,5.88814286 13.9,5.89957143 C11.9328571,6.07814286 10.4471429,7.601 10.59,9.28957143 C10.7257143,10.8567143 12.2085714,12.0395714 14.0371429,12.0395714 C14.0914286,12.0395714 14.1457143,12.0395714 14.2014286,12.0381429 L14.2014286,15.5224286 C14.2014286,15.5781429 14.2314286,15.631 14.2742857,15.6595714 C14.2871429,15.6867143 14.3,15.7124286 14.3142857,15.7395714 C14.3142857,15.851 14.3385714,15.9524286 14.3828571,16.0495714 L14.5728571,16.4481429 L12.0728571,35.001 C12.0257143,35.3381429 12.2185714,35.6624286 12.5285714,35.7652857 C12.59,35.7881429 12.6614286,35.801 12.7314286,35.801 C12.9828571,35.801 13.2171429,35.651 13.3285714,35.4138571 L18.4514286,24.621 L20.24,28.391 C20.0842857,32.9695714 19.3157143,35.5452857 19.3085714,35.5724286 C19.2885714,35.6395714 19.3,35.7095714 19.3414286,35.7652857 C19.3828571,35.8238571 19.4471429,35.8567143 19.5171429,35.8567143 L25.9171429,35.8567143 C26.0385714,35.8567143 26.1357143,35.7567143 26.1357143,35.6367143 C26.1442857,29.721 29.1585714,29.3867143 29.1885714,29.3838571 C29.3185714,29.3952857 32.2414286,29.7524286 32.2485714,35.6367143 C32.2485714,35.7567143 32.3471429,35.8567143 32.4671429,35.8567143 L39.2014286,35.8567143 C39.2685714,35.8567143 39.3342857,35.8238571 39.3757143,35.7681429 C39.4171429,35.7152857 39.4314286,35.6452857 39.4114286,35.5781429 C38.9428571,33.8895714 38.6357143,28.9795714 38.5685714,27.8352857 L38.5685714,27.8352857 Z" id="Fill-1" fill="#1F3B58"></path>
                    <path d="M39.3186694,11.3196277 L39.858918,8.56075665 L42.4135216,8.10941704 C42.558617,8.0832301 42.6666667,7.96153785 42.6666667,7.81211826 C42.6666667,7.66115825 42.558617,7.539466 42.4135216,7.51481947 L39.858918,7.00802517 L39.3186694,2.48846749 C39.2955159,2.33750749 39.1751177,2.23738095 39.0223045,2.23738095 C38.8725785,2.23738095 38.7490932,2.3405883 38.7290268,2.48846749 L38.2829359,7.00802517 L36.2500579,7.51481947 C36.1065061,7.539466 36,7.66115825 36,7.81211826 C36,7.96153785 36.1065061,8.0832301 36.2500579,8.10941704 L38.2829359,8.56075665 L38.7290268,11.3196277 C38.7490932,11.4659665 38.8725785,11.5707143 39.0223045,11.5707143 C39.1751177,11.5707143 39.2955159,11.4659665 39.3186694,11.3196277" id="Fill-3" fill="#3394FF"></path>
                    <path d="M46.6666667,14.5685556 C46.6666667,15.3111352 46.0734341,15.9040476 45.3333333,15.9040476 C44.600432,15.9040476 44,15.3111352 44,14.5685556 C44,13.8346107 44.600432,13.237381 45.3333333,13.237381 C46.0734341,13.237381 46.6666667,13.8346107 46.6666667,14.5685556" id="Fill-5" fill="#3394FF"></path>
                    <path d="M6.30848,27.333381 C6.4424,27.333381 6.56192,27.229701 6.58496,27.098661 L7.40576,22.479141 L10.30448,21.638181 C10.43552,21.619461 10.53488,21.495621 10.53488,21.361701 C10.53488,21.222021 10.43552,21.106821 10.30448,21.080901 L7.40576,20.261541 L6.58496,15.473541 C6.56192,15.335301 6.4424,15.237381 6.30848,15.237381 C6.17024,15.237381 6.05216,15.335301 6.02768,15.473541 L5.18384,20.261541 L2.23472,21.080901 C2.10224,21.106821 2,21.222021 2,21.361701 C2,21.495621 2.10224,21.619461 2.23472,21.638181 L5.18384,22.479141 L6.02768,27.098661 C6.05216,27.229701 6.17024,27.333381 6.30848,27.333381" id="Fill-4" fill="#3394FF"></path>
                </g>
            </g>
        </g>
    </g>
</svg>