<?xml version="1.0" encoding="UTF-8"?>
<svg width="24px" height="24px" viewBox="0 0 24 24" version="1.1" xmlns="http://www.w3.org/2000/svg" xmlns:xlink="http://www.w3.org/1999/xlink">
    <!-- Generator: Sketch 61 (89581) - https://sketch.com -->
    <title>🔆 Icon / Disney Hotels</title>
    <desc>Created with Sketch.</desc>
    <g id="🔆-Icon-/-Disney-Hotels" stroke="none" stroke-width="1" fill="none" fill-rule="evenodd">
        <path d="M16.0589055,2.46255206 C15.1290292,1.77618842 13.8411505,1.86255206 13.2320815,2.66255206 C12.9228236,3.09035954 12.8319564,3.63343263 12.9856642,4.13527933 C12.6699398,4.02837132 12.3387386,3.97159158 12.0046447,3.96709751 C11.6675138,3.97155641 11.3332456,4.02832384 11.0143264,4.13527933 C11.1722543,3.63431617 11.0829041,3.09004015 10.7725586,2.66255206 C10.1588402,1.86255206 8.91280589,1.77618842 7.94573451,2.46255206 C6.97866312,3.1489157 6.71829774,4.37618842 7.32736674,5.18982479 C7.75246603,5.71345802 8.4432901,5.95793229 9.11272931,5.82164297 C8.92399168,6.22224068 8.82567732,6.65786659 8.82446764,7.0989157 C8.77992397,8.237219 9.37568842,9.30819649 10.3772574,9.89029218 C11.3788264,10.4723879 12.6258137,10.4723879 13.6273826,9.89029218 C14.6289516,9.30819649 15.2247161,8.237219 15.1801724,7.0989157 C15.177505,6.65753212 15.0776015,6.22189096 14.8872613,5.82164297 C15.5580383,5.9575827 16.2500262,5.71333262 16.6772733,5.18982479 C17.2863423,4.37618842 17.0073794,3.16255206 16.0589055,2.46255206 Z" id="Path" fill="#3494FF"></path>
        <path d="M21,18.3333333 L21,21.7555556 C21,21.8933333 20.8330684,22 20.6279809,22 L20.6279809,22 L18.5294118,22 L18.5294118,20.6977778 C18.5294267,20.6463124 18.5071659,20.5970167 18.4676667,20.5610459 C18.4281675,20.525075 18.374769,20.5054698 18.3195548,20.5066667 L18.3195548,20.5066667 L5.68044515,20.5066667 C5.62523097,20.5054698 5.57183245,20.525075 5.5323333,20.5610459 C5.49283414,20.5970167 5.4705733,20.6463124 5.47058824,20.6977778 L5.47058824,20.6977778 L5.47058824,22 L3.37201908,22 C3.16693164,22 3,21.8933333 3,21.7555556 L3,21.7555556 L3,18.3333333 L21,18.3333333 Z M11.5480453,13.5005446 L12.0476948,13.5022222 C14.2013675,13.4662836 16.3402996,13.8398136 18.3338633,14.6 C20.0461049,15.32 21,16.2933333 21,17.3377778 L21,17.3377778 L21,17.5555556 L3,17.5555556 L3,17.3244444 C3,16.2844444 3.96343402,15.3111111 5.71860095,14.5866667 C7.72864624,13.8324868 9.88122488,13.463658 12.0476948,13.5022222 Z M8.91424185,10 C9.69312374,10.8479531 10.817826,11.3342684 12,11.3342684 C13.1821873,11.3342684 14.3068896,10.8479531 15.0857715,10 L15.0857715,10 L18.6796154,10 C19.1334543,10.0024448 19.5,10.3539324 19.5,10.7866667 L19.5,10.7866667 L19.5,14.7244444 C19.0987673,14.4658293 18.6745195,14.2412653 18.2321329,14.0533333 L18.2321329,14.0533333 L18.2088265,14.0533333 L18.1808588,13.7333333 C18.1808588,12.8177778 16.698573,11.7777778 14.8666915,11.7777778 C13.4310184,11.7777778 12.2144254,12.2222222 11.752959,12.8711111 C11.296154,12.2177778 10.0748996,11.7733333 8.63922656,11.7733333 C6.80734503,11.7733333 5.32505922,12.8133333 5.32505922,13.7288889 L5.32505922,13.7288889 L5.29243028,14.1111111 C5.02058535,14.2300777 4.75602298,14.3636248 4.5,14.5111111 L4.5,14.5111111 L4.5,10.7866667 C4.49877357,10.5792074 4.58401995,10.379776 4.7369985,10.2322466 C4.88997706,10.0847173 5.09815604,10.0011754 5.31573666,10 L5.31573666,10 Z" id="Combined-Shape" fill="#253B56"></path>
    </g>
</svg>